<svg width="97" height="97" viewBox="0 0 97 97" fill="none" xmlns="http://www.w3.org/2000/svg">
<circle cx="48.8452" cy="48.5" r="47.9101" fill="#1D5B93"/>
<circle cx="48.8455" cy="48.5002" r="43.5546" fill="#1D5B93" stroke="white" stroke-width="2.01021"/>
<path d="M46.3389 41.0857L49.4732 43.3952L53.6798 38.2813" stroke="white" stroke-width="1.34014" stroke-linecap="round"/>
<rect x="26.7623" y="55.0795" width="5.64347" height="13.8854" rx="2.82173" transform="rotate(-16.2564 26.7623 55.0795)" stroke="white" stroke-width="1.34014"/>
<path d="M32.9774 55.4375L37.5139 53.4579C38.6412 53.018 41.3741 52.4022 43.2876 53.4579C44.8548 54.6677 48.3025 57.1201 49.5562 57.2521C51.1234 57.4171 54.1752 57.582 55.3299 57.8295C56.4847 58.0769 57.5569 59.0667 57.7219 59.5616C57.8869 60.0565 58.2993 61.5411 56.5672 61.9535C54.835 62.3659 49.8861 61.2937 49.5562 61.2112C49.2263 61.1287 46.092 60.9638 44.8548 60.9638" stroke="white" stroke-width="1.34014" stroke-linecap="round"/>
<path d="M57.4741 59.1489L65.3924 53.6226C65.8323 53.3202 66.9265 52.9628 67.7843 53.9526C68.0318 54.2275 68.3782 54.9753 67.7843 55.7672L60.5259 63.0255C58.2989 64.4002 53.2511 67.1496 50.8756 67.1496C50.0783 67.2596 47.3949 67.1166 43.0399 65.665C38.6848 64.2133 36.2214 64.4002 35.534 64.6752" stroke="white" stroke-width="1.34014" stroke-linecap="round"/>
<path d="M50.0511 51.4784C51.2527 50.5986 53.9017 48.6905 54.8848 48.0967C56.1137 47.3543 58.4896 44.6325 58.9812 42.0755C59.3744 40.03 59.3089 35.6145 59.2269 33.6624C57.643 33.7449 53.5904 33.0355 50.0511 29.5383" stroke="white" stroke-width="1.34014" stroke-linecap="round"/>
<path d="M50.0511 51.5609C48.8496 50.6811 46.2006 48.773 45.2175 48.1791C43.9886 47.4368 41.6127 44.7149 41.1211 42.158C40.7279 40.1124 40.7934 35.6969 40.8754 33.7449C42.4593 33.8273 46.5119 33.118 50.0511 29.6208" stroke="white" stroke-width="1.34014" stroke-linecap="round"/>
</svg>
