<svg width="96" height="97" viewBox="0 0 96 97" fill="none" xmlns="http://www.w3.org/2000/svg">
<circle cx="47.91" cy="48.5" r="47.9101" fill="#1D5B93"/>
<circle cx="47.91" cy="48.5002" r="43.5546" fill="#1D5B93" stroke="white" stroke-width="2.01021"/>
<path d="M50.6116 33.9331L52.5765 29.676M32.9282 44.0847C32.6007 42.7748 32.4697 40.0241 34.5655 39.5001C35.6571 39.5001 37.9712 39.9586 38.4952 41.7924L40.1326 48.0144C40.7875 48.7785 42.4903 49.8482 44.0622 48.0144L60.4358 31.3133C61.309 30.6584 63.3175 29.7415 64.3654 31.3133C65.1295 31.75 66.1993 33.1472 64.3654 35.243L54.5413 45.0671C55.742 43.8664 58.4055 42.0544 59.4534 44.4122C59.9992 44.958 60.6323 46.5735 58.7984 48.6693C59.5625 48.0144 61.3527 47.0975 62.4006 48.6693C63.0556 49.3243 63.9725 51.0271 62.4006 52.599L60.7633 54.5638C61.5274 53.9089 63.383 52.9919 64.6929 54.5638C65.1295 55.1096 65.7408 56.5941 64.6929 58.166L53.8864 68.6451C52.1398 69.7367 47.6644 71.3958 43.7347 69.3C41.4424 67.3352 36.7268 63.2091 36.2029 62.4231C35.2205 61.5499 33.2557 58.8864 33.2557 55.2187L32.9282 44.0847Z" stroke="white" stroke-width="1.89616" stroke-linecap="round"/>
<path d="M45.372 31.641L43.7346 25.7465" stroke="white" stroke-width="1.89616" stroke-linecap="round"/>
<path d="M42.0975 36.8803C40.0513 34.962 36.8579 31.9682 36.8579 31.9682" stroke="white" stroke-width="1.89616" stroke-linecap="round"/>
</svg>
