<svg width="96" height="97" viewBox="0 0 96 97" fill="none" xmlns="http://www.w3.org/2000/svg">
<circle cx="47.9101" cy="48.5" r="47.9101" fill="#1D5B93"/>
<circle cx="47.9099" cy="48.5" r="43.5546" fill="#1D5B93" stroke="white" stroke-width="2.01021"/>
<path d="M35.4041 61.006C37.9523 63.5542 41.2111 65.2728 44.7532 65.9365C48.2952 66.6002 51.9552 66.178 55.2531 64.7252C58.551 63.2724 61.3329 60.8569 63.2339 57.7954C65.1349 54.7339 66.0664 51.1694 65.9062 47.5692C65.7459 43.9691 64.5014 40.5014 62.3358 37.6209C60.1703 34.7405 57.1848 32.5817 53.7708 31.4277C50.3569 30.2736 46.6739 30.1783 43.2048 31.1541C39.7357 32.1299 36.6425 34.1313 34.3308 36.8958" stroke="white" stroke-width="2.01021"/>
<path d="M35.0441 64.2111V60.1479H38.7009" stroke="white" stroke-width="2.01021" stroke-linecap="round"/>
<path d="M30.1677 43.0824H41.951M48.4521 39.8318L54.5469 49.5835C54.9532 50.8025 55.7658 56.0846 52.109 57.7099C50.0774 58.3871 44.3889 58.9289 42.3573 56.0846C41.5447 54.7302 40.9758 51.4526 41.951 49.1772C42.9262 46.9018 46.556 42.1343 48.4521 39.8318Z" stroke="white" stroke-width="2.01021" stroke-linecap="round"/>
<path d="M39.1067 48.7705H23.2602" stroke="white" stroke-width="2.01021" stroke-linecap="round"/>
<path d="M30.1677 54.8652H38.7004" stroke="white" stroke-width="2.01021" stroke-linecap="round"/>
<path d="M43.9827 52.8334C43.9827 53.917 44.714 56.084 47.6395 56.084" stroke="white" stroke-width="2.01021" stroke-linecap="round"/>
</svg>
